#define s9xsplash_width 128
#define s9xsplash_height 64
static unsigned char s9xsplash_bits[] = {
   0x00, 0x00, 0x00, 0x00, 0x00, 0x00, 0x00, 0x00, 0x00, 0x00, 0x00, 0x00,
   0x00, 0x00, 0x00, 0x00, 0x00, 0x00, 0x00, 0x00, 0x00, 0x00, 0x00, 0x00,
   0x00, 0x00, 0x00, 0x00, 0x00, 0x00, 0x00, 0x00, 0x00, 0x00, 0x00, 0x00,
   0x00, 0x00, 0x00, 0x00, 0x00, 0x00, 0x0e, 0x00, 0x00, 0x00, 0x00, 0x00,
   0x00, 0x00, 0x00, 0x00, 0x00, 0x00, 0x00, 0x00, 0x00, 0x80, 0x7f, 0x00,
   0x00, 0x00, 0x00, 0x00, 0x00, 0x00, 0x00, 0x00, 0x00, 0x00, 0x00, 0x00,
   0x00, 0xc0, 0xff, 0x00, 0x00, 0x00, 0x00, 0x1c, 0x00, 0x00, 0x00, 0x00,
   0x00, 0x00, 0x00, 0x00, 0x00, 0xf0, 0xff, 0x00, 0x00, 0x00, 0x80, 0x3f,
   0x00, 0x00, 0x00, 0x00, 0x00, 0x00, 0x00, 0x00, 0x00, 0xf8, 0xff, 0x01,
   0x00, 0x00, 0xe0, 0x7f, 0x00, 0x00, 0x00, 0x00, 0x00, 0x00, 0x00, 0x00,
   0x00, 0xfc, 0xff, 0xc0, 0x01, 0x00, 0xf0, 0x7f, 0xc0, 0xff, 0xff, 0xff,
   0xfb, 0xff, 0xff, 0x7f, 0x00, 0xfe, 0x7f, 0xf0, 0x03, 0x00, 0xf8, 0x3f,
   0xc0, 0xff, 0xff, 0xff, 0xfb, 0xff, 0xff, 0x7f, 0x00, 0xff, 0x1f, 0xf8,
   0x03, 0x00, 0xfc, 0x07, 0xc0, 0x03, 0x00, 0x00, 0x00, 0x00, 0x00, 0x60,
   0x80, 0xff, 0x07, 0xf8, 0x01, 0x00, 0xfe, 0x03, 0xe0, 0x01, 0x00, 0x00,
   0x00, 0x00, 0x00, 0x60, 0xc0, 0xff, 0x03, 0xf8, 0x01, 0x00, 0xfe, 0x03,
   0xe0, 0x01, 0x00, 0x00, 0x00, 0x00, 0x00, 0x70, 0xe0, 0xff, 0x01, 0xf0,
   0x03, 0x00, 0xff, 0x01, 0xe0, 0x00, 0x00, 0x00, 0x00, 0x00, 0x00, 0x38,
   0xf0, 0x7f, 0xe0, 0xe1, 0x0f, 0x00, 0xff, 0x01, 0xf0, 0x00, 0x00, 0x00,
   0x00, 0x00, 0x00, 0x1c, 0xf0, 0x3f, 0xf0, 0xc3, 0x0f, 0x00, 0xff, 0x00,
   0xf0, 0xff, 0xff, 0xff, 0xfe, 0xff, 0xff, 0x0f, 0xf8, 0x1f, 0xf8, 0x03,
   0x1f, 0x80, 0x7f, 0x00, 0xf0, 0xff, 0xff, 0x7f, 0xfe, 0xff, 0xff, 0x07,
   0xfc, 0x07, 0xfc, 0x03, 0x3e, 0x80, 0x5f, 0x00, 0x78, 0x00, 0x00, 0x00,
   0x3f, 0x00, 0x00, 0x00, 0xfc, 0x03, 0xfe, 0x01, 0xf8, 0xc0, 0x1f, 0x00,
   0x78, 0x00, 0x00, 0x00, 0xff, 0x03, 0x00, 0x00, 0xfe, 0x01, 0xff, 0x01,
   0xf0, 0xc1, 0x0f, 0x00, 0x38, 0x00, 0x00, 0x00, 0xef, 0x3f, 0x00, 0x00,
   0x7f, 0x81, 0xff, 0x01, 0xc0, 0xe3, 0x0f, 0x00, 0x3c, 0x00, 0x00, 0x80,
   0x07, 0xfe, 0x07, 0x00, 0xbf, 0xc0, 0xff, 0x01, 0x80, 0xf7, 0x07, 0x00,
   0x3c, 0x00, 0x00, 0x80, 0x07, 0xc0, 0x7f, 0x80, 0x7f, 0xe0, 0xff, 0x01,
   0x00, 0xfe, 0x03, 0x00, 0xfc, 0xff, 0xff, 0xdf, 0x03, 0x00, 0xfc, 0x83,
   0x3f, 0xf0, 0xff, 0x01, 0x00, 0xfc, 0x03, 0x00, 0xfe, 0xff, 0xff, 0xdf,
   0x03, 0x00, 0xc0, 0xc7, 0x3f, 0xfc, 0xff, 0x00, 0x00, 0xf8, 0x01, 0x00,
   0x00, 0x00, 0x00, 0x00, 0x00, 0x00, 0x00, 0xc0, 0x1f, 0xfe, 0xff, 0x00,
   0x00, 0xfc, 0x01, 0x00, 0x00, 0x00, 0x00, 0x00, 0x00, 0x00, 0x00, 0xe0,
   0x1f, 0xff, 0xff, 0x00, 0x00, 0xfe, 0x00, 0x00, 0x00, 0x00, 0x00, 0x00,
   0x00, 0x00, 0x00, 0xe0, 0xcf, 0x7f, 0xff, 0x00, 0x00, 0xfe, 0x03, 0x00,
   0x00, 0x00, 0x00, 0x00, 0x00, 0x00, 0x00, 0xe0, 0xff, 0x3f, 0x7f, 0x00,
   0x00, 0xff, 0x0f, 0x00, 0x00, 0x00, 0x00, 0x00, 0x00, 0x00, 0x00, 0xe0,
   0xff, 0x1f, 0x7f, 0x00, 0x00, 0xbf, 0x1f, 0x00, 0x00, 0x00, 0x00, 0x00,
   0x00, 0x00, 0x00, 0xe0, 0xff, 0x0f, 0x7f, 0x00, 0x80, 0x1f, 0x3f, 0x00,
   0x00, 0x00, 0x00, 0x00, 0x00, 0x00, 0x00, 0xe0, 0xff, 0x87, 0x7f, 0x00,
   0xc0, 0x1f, 0x3e, 0x00, 0x00, 0x00, 0x00, 0x00, 0x00, 0x00, 0x00, 0xc0,
   0xff, 0x83, 0x3f, 0x00, 0xc0, 0x0f, 0x7c, 0x00, 0x00, 0x00, 0x00, 0x00,
   0x00, 0x00, 0x00, 0x80, 0xff, 0x83, 0x3f, 0x00, 0xe0, 0x06, 0xf8, 0x00,
   0x00, 0x00, 0x00, 0x00, 0x00, 0x00, 0x00, 0x00, 0xf0, 0x81, 0x3f, 0x00,
   0x70, 0x07, 0xf0, 0x00, 0x00, 0x00, 0x00, 0x00, 0x00, 0x00, 0x00, 0x00,
   0xe0, 0xc0, 0x1f, 0x00, 0x30, 0x03, 0xe0, 0x01, 0x00, 0x00, 0x00, 0x00,
   0x00, 0x00, 0x00, 0x00, 0x00, 0xc0, 0x1f, 0x00, 0x98, 0x01, 0xe0, 0x0f,
   0x00, 0x00, 0x00, 0x00, 0x00, 0x00, 0x00, 0x00, 0x00, 0xc0, 0x1f, 0x00,
   0x5c, 0x00, 0xc0, 0x0f, 0x00, 0x00, 0x00, 0x00, 0x00, 0x00, 0x00, 0x00,
   0x00, 0xe0, 0x0f, 0x00, 0x2c, 0x00, 0xc0, 0x0f, 0x00, 0x00, 0x00, 0x00,
   0x00, 0x00, 0x00, 0x00, 0x00, 0xe0, 0x0f, 0x00, 0x1e, 0x00, 0xc0, 0x0f,
   0x00, 0x00, 0x00, 0x00, 0x00, 0x00, 0x00, 0x00, 0x00, 0xe0, 0x0f, 0x00,
   0x16, 0x00, 0x80, 0x09, 0x00, 0x00, 0x00, 0x00, 0x00, 0x00, 0x00, 0x00,
   0x00, 0xe0, 0x0f, 0x00, 0x0b, 0x00, 0x00, 0x1c, 0x00, 0x00, 0x00, 0x00,
   0x00, 0x00, 0x00, 0x00, 0x00, 0xf0, 0x07, 0x80, 0x03, 0x00, 0x00, 0x0c,
   0x00, 0x00, 0x00, 0x00, 0x00, 0x00, 0x00, 0x00, 0x00, 0xf0, 0x07, 0x80,
   0x01, 0x00, 0x00, 0x00, 0x00, 0x00, 0x00, 0x00, 0x00, 0x00, 0x00, 0x00,
   0x00, 0xf0, 0x07, 0xc0, 0x01, 0x00, 0x00, 0x00, 0x00, 0x00, 0x00, 0x00,
   0x00, 0x00, 0x00, 0x00, 0x00, 0xf8, 0x03, 0xc0, 0x00, 0x00, 0x00, 0x00,
   0x00, 0x00, 0x00, 0x00, 0x00, 0x00, 0x00, 0x00, 0x00, 0xf8, 0x03, 0x60,
   0x00, 0x00, 0x00, 0x00, 0x00, 0x00, 0x00, 0x00, 0x00, 0x00, 0x00, 0x00,
   0x00, 0xf8, 0x01, 0x30, 0x00, 0x00, 0x00, 0x00, 0x80, 0xff, 0x36, 0xe0,
   0xff, 0x7f, 0x00, 0x00, 0x00, 0xfc, 0x01, 0x30, 0x00, 0x00, 0x00, 0x00,
   0x00, 0xc0, 0x36, 0x60, 0x30, 0x0c, 0x00, 0x00, 0x00, 0xfc, 0x01, 0x18,
   0x00, 0x00, 0x00, 0x00, 0x80, 0xff, 0x36, 0x60, 0x30, 0x0c, 0x00, 0x00,
   0x00, 0xfc, 0x00, 0x18, 0x00, 0x00, 0x00, 0x00, 0x80, 0x01, 0x36, 0x60,
   0x30, 0x0c, 0x00, 0x00, 0x00, 0xfc, 0x00, 0x1c, 0x00, 0x00, 0x00, 0x00,
   0x80, 0x01, 0xf6, 0xff, 0x3f, 0x0c, 0x00, 0x00, 0x00, 0xfe, 0x00, 0x3c,
   0x00, 0x00, 0x00, 0x00, 0x00, 0x00, 0x00, 0x00, 0x00, 0x00, 0x00, 0x00,
   0x00, 0xfe, 0x00, 0x7e, 0x00, 0x00, 0x00, 0x00, 0x00, 0x00, 0x00, 0x00,
   0x00, 0x00, 0x00, 0x00, 0x00, 0xbe, 0x00, 0x7e, 0x00, 0x00, 0x00, 0x00,
   0x00, 0x00, 0x00, 0x00, 0x00, 0x00, 0x00, 0x00, 0x00, 0xbb, 0x00, 0x3e,
   0x00, 0x00, 0x00, 0x00, 0x00, 0x00, 0x00, 0x00, 0x00, 0x00, 0x00, 0x00,
   0x00, 0x3f, 0x00, 0x0e, 0x00, 0x00, 0x00, 0x00, 0x00, 0x00, 0x00, 0x00,
   0x00, 0x00, 0x00, 0x00, 0x00, 0x1d, 0x00, 0x00, 0x00, 0x00, 0x00, 0x00,
   0x00, 0x00, 0x00, 0x00, 0x00, 0x00, 0x00, 0x00, 0x00, 0x0f, 0x00, 0x00,
   0x00, 0x00, 0x00, 0x00, 0x00, 0x00, 0x00, 0x00, 0x00, 0x00, 0x00, 0x00,
   0x80, 0x0f, 0x00, 0x00, 0x00, 0x00, 0x00, 0x00, 0x00, 0x00, 0x00, 0x00,
   0x00, 0x00, 0x00, 0x00, 0x80, 0x06, 0x00, 0x00, 0x00, 0x00, 0x00, 0x00,
   0x00, 0x00, 0x00, 0x00, 0x00, 0x00, 0x00, 0x00, 0xc0, 0x00, 0x00, 0x00,
   0x00, 0x00, 0x00, 0x00, 0x00, 0x00, 0x00, 0x00, 0x00, 0x00, 0x00, 0x00,
   0x40, 0x00, 0x00, 0x00, 0x00, 0x00, 0x00, 0x00, 0x00, 0x00, 0x00, 0x00,
   0x00, 0x00, 0x00, 0x00, 0x00, 0x00, 0x00, 0x00, 0x00, 0x00, 0x00, 0x00,
   0x00, 0x00, 0x00, 0x00, 0x00, 0x00, 0x00, 0x00, 0x00, 0x00, 0x00, 0x00,
   0x00, 0x00, 0x00, 0x00 };
